<svg width="314" height="230" viewBox="0 0 314 230" fill="none" xmlns="http://www.w3.org/2000/svg">
<path fill-rule="evenodd" clip-rule="evenodd" d="M180.472 209.901C210.683 189.178 230.5 154.403 230.5 115C230.5 99.3614 227.378 84.4519 221.724 70.8606C225.567 70.2936 229.499 70 233.5 70C277.683 70 313.5 105.817 313.5 150C313.5 194.183 277.683 230 233.5 230C213.157 230 194.588 222.407 180.472 209.901ZM173.802 203.256C202.401 184.326 221.263 151.865 221.263 115C221.263 99.9929 218.137 85.7158 212.501 72.7843C215.509 71.9683 218.587 71.3234 221.724 70.8606C204.416 29.2537 163.374 0 115.5 0C51.9873 0 0.5 51.4873 0.5 115C0.5 178.513 51.9873 230 115.5 230C139.61 230 161.986 222.581 180.472 209.901C178.121 207.818 175.893 205.599 173.802 203.256ZM173.802 203.256C157.087 214.32 137.046 220.763 115.5 220.763C57.0888 220.763 9.73714 173.411 9.73714 115C9.73714 56.5888 57.0888 9.23714 115.5 9.23714C158.904 9.23714 196.202 35.3831 212.501 72.7843C178.505 82.0076 153.5 113.084 153.5 150C153.5 170.452 161.175 189.112 173.802 203.256Z" fill="#52D9B0"/>
</svg>
