<svg width="291" height="295" viewBox="0 0 291 295" fill="none" xmlns="http://www.w3.org/2000/svg">
<path fill-rule="evenodd" clip-rule="evenodd" d="M229.129 159.491C264.475 151.147 290.794 119.208 290.794 81.0799C290.794 36.601 254.977 0.543823 210.794 0.543823C172.199 0.543823 139.987 28.058 132.457 64.6652C127.017 63.8703 121.453 63.4588 115.794 63.4588C52.2814 63.4588 0.794189 115.291 0.794189 179.229C0.794189 243.168 52.2814 295 115.794 295C179.307 295 230.794 243.168 230.794 179.229C230.794 172.5 230.224 165.905 229.129 159.491ZM220.027 161.085C212.324 115.918 176.357 80.4738 131.111 73.8662C131.386 70.7446 131.838 67.6742 132.457 64.6652C181.648 71.8527 220.75 110.386 229.129 159.491C226.156 160.193 223.118 160.728 220.027 161.085ZM220.027 161.085C221.033 166.982 221.557 173.044 221.557 179.229C221.557 238.032 174.205 285.701 115.794 285.701C57.383 285.701 10.0313 238.032 10.0313 179.229C10.0313 120.427 57.383 72.7579 115.794 72.7579C120.996 72.7579 126.11 73.1359 131.111 73.8662C130.901 76.2426 130.794 78.6487 130.794 81.0799C130.794 125.559 166.611 161.616 210.794 161.616C213.917 161.616 216.998 161.436 220.027 161.085Z" fill="#52D9B0"/>
</svg>
