<svg width="21" height="20" viewBox="0 0 21 20" fill="none" xmlns="http://www.w3.org/2000/svg">
<path d="M3.95203 0.526256C3.29483 0.781834 2.73905 1.12261 2.18327 1.67839C1.62749 2.23011 1.28672 2.78995 1.03114 3.44309C0.783675 4.07595 0.617346 4.80212 0.568664 5.865C0.519983 6.92788 0.507812 7.26865 0.507812 9.97859C0.507812 12.6885 0.519983 13.0293 0.568664 14.0922C0.617346 15.1551 0.787731 15.8812 1.03114 16.5141C1.28672 17.1713 1.62749 17.7271 2.18327 18.2828C2.73905 18.8386 3.29483 19.1794 3.95203 19.435C4.58489 19.6824 5.31106 19.8488 6.37394 19.8975C7.43682 19.9461 7.77759 19.9583 10.4875 19.9583C13.1975 19.9583 13.5382 19.9461 14.6011 19.8975C15.664 19.8488 16.3902 19.6784 17.023 19.435C17.6802 19.1794 18.236 18.8386 18.7918 18.2828C19.3476 17.7271 19.6883 17.1713 19.9439 16.5141C20.1914 15.8812 20.3577 15.1551 20.4064 14.0922C20.4551 13.0293 20.4672 12.6885 20.4672 9.97859C20.4672 7.26865 20.4551 6.92788 20.4064 5.865C20.3577 4.80212 20.1873 4.07595 19.9439 3.44309C19.6883 2.78995 19.3476 2.23011 18.7958 1.67839C18.2401 1.12261 17.6843 0.781834 17.0271 0.526256C16.3942 0.278792 15.6681 0.112463 14.6052 0.0637816C13.5423 0.0151001 13.2015 0.00292969 10.4916 0.00292969C7.78165 0.00292969 7.44088 0.0151001 6.378 0.0637816C5.31106 0.108406 4.58489 0.278792 3.95203 0.526256ZM14.52 1.85688C15.4936 1.90151 16.021 2.06378 16.3739 2.20171C16.8405 2.38427 17.1731 2.59928 17.522 2.94816C17.8709 3.29705 18.0859 3.6297 18.2685 4.09624C18.4064 4.44918 18.5687 4.97656 18.6133 5.95019C18.662 7.0009 18.6701 7.31733 18.6701 9.98265C18.6701 12.648 18.6579 12.9644 18.6133 14.0151C18.5687 14.9887 18.4064 15.5161 18.2685 15.8691C18.0859 16.3356 17.8709 16.6682 17.522 17.0171C17.1731 17.366 16.8405 17.581 16.3739 17.7636C16.021 17.9015 15.4936 18.0638 14.52 18.1084C13.4693 18.1571 13.1528 18.1652 10.4875 18.1652C7.82221 18.1652 7.50578 18.153 6.45507 18.1084C5.48144 18.0638 4.95406 17.9015 4.60112 17.7636C4.13459 17.581 3.80193 17.366 3.45305 17.0171C3.10416 16.6682 2.88915 16.3356 2.7066 15.8691C2.56866 15.5161 2.40639 14.9887 2.36177 14.0151C2.31309 12.9644 2.30497 12.648 2.30497 9.98265C2.30497 7.31733 2.31714 7.0009 2.36177 5.95019C2.40639 4.97656 2.56866 4.44918 2.7066 4.09624C2.88915 3.6297 3.10416 3.29705 3.45305 2.94816C3.80193 2.59928 4.13459 2.38427 4.60112 2.20171C4.95406 2.06378 5.48144 1.90151 6.45507 1.85688C7.50578 1.8082 7.82221 1.80009 10.4875 1.80009C13.1528 1.80009 13.4693 1.8082 14.52 1.85688Z" fill="#43C59E"/>
<path d="M5.36377 9.98311C5.36377 12.8148 7.65991 15.1068 10.4875 15.1068C13.3151 15.1068 15.6112 12.8107 15.6112 9.98311C15.6112 7.15552 13.3191 4.85938 10.4875 4.85938C7.65586 4.85938 5.36377 7.15146 5.36377 9.98311ZM13.8141 9.98311C13.8141 11.8208 12.3252 13.3097 10.4875 13.3097C8.64977 13.3097 7.16093 11.8208 7.16093 9.98311C7.16093 8.14538 8.64977 6.65654 10.4875 6.65654C12.3252 6.65654 13.8141 8.14538 13.8141 9.98311Z" fill="#43C59E"/>
<path d="M15.8181 5.85249C16.479 5.85249 17.0148 5.31669 17.0148 4.65574C17.0148 3.99479 16.479 3.45898 15.8181 3.45898C15.1571 3.45898 14.6213 3.99479 14.6213 4.65574C14.6213 5.31669 15.1571 5.85249 15.8181 5.85249Z" fill="#43C59E"/>
</svg>
