<svg width="25" height="26" viewBox="0 0 25 26" fill="none" xmlns="http://www.w3.org/2000/svg">
<path d="M4.57598 1.32615C3.77028 1.63947 3.08892 2.05725 2.40756 2.73861C1.72619 3.415 1.30842 4.10134 0.995092 4.90207C0.691711 5.67793 0.487799 6.56818 0.428118 7.87122C0.368436 9.17427 0.353516 9.59204 0.353516 12.9143C0.353516 16.2366 0.368436 16.6544 0.428118 17.9574C0.487799 19.2604 0.696684 20.1507 0.995092 20.9266C1.30842 21.7323 1.72619 22.4136 2.40756 23.095C3.08892 23.7764 3.77028 24.1941 4.57598 24.5075C5.35184 24.8108 6.24209 25.0147 7.54514 25.0744C8.84819 25.1341 9.26596 25.149 12.5882 25.149C15.9105 25.149 16.3283 25.1341 17.6313 25.0744C18.9344 25.0147 19.8246 24.8059 20.6005 24.5075C21.4062 24.1941 22.0875 23.7764 22.7689 23.095C23.4503 22.4136 23.868 21.7323 24.1814 20.9266C24.4848 20.1507 24.6887 19.2604 24.7483 17.9574C24.808 16.6544 24.8229 16.2366 24.8229 12.9143C24.8229 9.59204 24.808 9.17427 24.7483 7.87122C24.6887 6.56818 24.4798 5.67793 24.1814 4.90207C23.868 4.10134 23.4503 3.415 22.7739 2.73861C22.0925 2.05725 21.4112 1.63947 20.6054 1.32615C19.8296 1.02277 18.9393 0.818854 17.6363 0.759172C16.3332 0.699491 15.9155 0.68457 12.5932 0.68457C9.27093 0.68457 8.85316 0.699491 7.55011 0.759172C6.24209 0.81388 5.35184 1.02277 4.57598 1.32615ZM17.5319 2.95744C18.7255 3.01215 19.372 3.21109 19.8047 3.38019C20.3767 3.60399 20.7845 3.86759 21.2122 4.2953C21.6399 4.72302 21.9035 5.13085 22.1273 5.70279C22.2964 6.13548 22.4954 6.78203 22.5501 7.97567C22.6098 9.26379 22.6197 9.65172 22.6197 12.9193C22.6197 16.1869 22.6048 16.5748 22.5501 17.8629C22.4954 19.0565 22.2964 19.7031 22.1273 20.1358C21.9035 20.7077 21.6399 21.1156 21.2122 21.5433C20.7845 21.971 20.3767 22.2346 19.8047 22.4584C19.372 22.6275 18.7255 22.8264 17.5319 22.8811C16.2437 22.9408 15.8558 22.9508 12.5882 22.9508C9.32067 22.9508 8.93274 22.9358 7.64461 22.8811C6.45098 22.8264 5.80443 22.6275 5.37174 22.4584C4.79979 22.2346 4.39197 21.971 3.96425 21.5433C3.53653 21.1156 3.27294 20.7077 3.04913 20.1358C2.88003 19.7031 2.6811 19.0565 2.62639 17.8629C2.56671 16.5748 2.55676 16.1869 2.55676 12.9193C2.55676 9.65172 2.57168 9.26379 2.62639 7.97567C2.6811 6.78203 2.88003 6.13548 3.04913 5.70279C3.27294 5.13085 3.53653 4.72302 3.96425 4.2953C4.39197 3.86759 4.79979 3.60399 5.37174 3.38019C5.80443 3.21109 6.45098 3.01215 7.64461 2.95744C8.93274 2.89776 9.32067 2.88781 12.5882 2.88781C15.8558 2.88781 16.2437 2.89776 17.5319 2.95744Z" fill="white"/>
<path d="M6.30664 12.9202C6.30664 16.3916 9.12162 19.2016 12.5881 19.2016C16.0546 19.2016 18.8696 16.3867 18.8696 12.9202C18.8696 9.45365 16.0596 6.63867 12.5881 6.63867C9.11665 6.63867 6.30664 9.44868 6.30664 12.9202ZM16.6664 12.9202C16.6664 15.1731 14.8411 16.9984 12.5881 16.9984C10.3351 16.9984 8.50988 15.1731 8.50988 12.9202C8.50988 10.6672 10.3351 8.84192 12.5881 8.84192C14.8411 8.84192 16.6664 10.6672 16.6664 12.9202Z" fill="white"/>
<path d="M19.1232 7.85573C19.9335 7.85573 20.5903 7.19885 20.5903 6.38856C20.5903 5.57826 19.9335 4.92139 19.1232 4.92139C18.3129 4.92139 17.656 5.57826 17.656 6.38856C17.656 7.19885 18.3129 7.85573 19.1232 7.85573Z" fill="white"/>
</svg>
