<svg width="20" height="21" viewBox="0 0 20 21" fill="none" xmlns="http://www.w3.org/2000/svg">
<path d="M3.48523 0.962352C2.82803 1.21793 2.27225 1.5587 1.71647 2.11448C1.16069 2.66621 0.81992 3.22604 0.564342 3.87919C0.316878 4.51205 0.150549 5.23821 0.101868 6.3011C0.053186 7.36398 0.0410156 7.70475 0.0410156 10.4147C0.0410156 13.1246 0.053186 13.4654 0.101868 14.5283C0.150549 15.5912 0.320934 16.3173 0.564342 16.9502C0.81992 17.6074 1.16069 18.1632 1.71647 18.7189C2.27225 19.2747 2.82803 19.6155 3.48523 19.8711C4.11809 20.1185 4.84426 20.2849 5.90714 20.3335C6.97002 20.3822 7.31079 20.3944 10.0207 20.3944C12.7307 20.3944 13.0714 20.3822 14.1343 20.3335C15.1972 20.2849 15.9234 20.1145 16.5562 19.8711C17.2134 19.6155 17.7692 19.2747 18.325 18.7189C18.8808 18.1632 19.2215 17.6074 19.4771 16.9502C19.7246 16.3173 19.8909 15.5912 19.9396 14.5283C19.9883 13.4654 20.0004 13.1246 20.0004 10.4147C20.0004 7.70475 19.9883 7.36398 19.9396 6.3011C19.8909 5.23821 19.7205 4.51205 19.4771 3.87919C19.2215 3.22604 18.8808 2.66621 18.329 2.11448C17.7733 1.5587 17.2175 1.21793 16.5603 0.962352C15.9274 0.714888 15.2013 0.548559 14.1384 0.499878C13.0755 0.451196 12.7347 0.439026 10.0248 0.439026C7.31485 0.439026 6.97408 0.451196 5.9112 0.499878C4.84426 0.544503 4.11809 0.714888 3.48523 0.962352ZM14.0532 2.29298C15.0268 2.33761 15.5542 2.49988 15.9071 2.63781C16.3737 2.82036 16.7063 3.03537 17.0552 3.38426C17.4041 3.73314 17.6191 4.0658 17.8017 4.53233C17.9396 4.88527 18.1019 5.41266 18.1465 6.38629C18.1952 7.437 18.2033 7.75343 18.2033 10.4187C18.2033 13.0841 18.1911 13.4005 18.1465 14.4512C18.1019 15.4248 17.9396 15.9522 17.8017 16.3052C17.6191 16.7717 17.4041 17.1043 17.0552 17.4532C16.7063 17.8021 16.3737 18.0171 15.9071 18.1997C15.5542 18.3376 15.0268 18.4999 14.0532 18.5445C13.0025 18.5932 12.686 18.6013 10.0207 18.6013C7.35542 18.6013 7.03899 18.5891 5.98828 18.5445C5.01465 18.4999 4.48726 18.3376 4.13432 18.1997C3.66779 18.0171 3.33513 17.8021 2.98625 17.4532C2.63736 17.1043 2.42235 16.7717 2.2398 16.3052C2.10187 15.9522 1.9396 15.4248 1.89497 14.4512C1.84629 13.4005 1.83818 13.0841 1.83818 10.4187C1.83818 7.75343 1.85035 7.437 1.89497 6.38629C1.9396 5.41266 2.10187 4.88527 2.2398 4.53233C2.42235 4.0658 2.63736 3.73314 2.98625 3.38426C3.33513 3.03537 3.66779 2.82036 4.13432 2.63781C4.48726 2.49988 5.01465 2.33761 5.98828 2.29298C7.03899 2.2443 7.35542 2.23619 10.0207 2.23619C12.686 2.23619 13.0025 2.2443 14.0532 2.29298Z" fill="#FDCA40"/>
<path d="M4.89697 10.4187C4.89697 13.2504 7.19312 15.5425 10.0207 15.5425C12.8483 15.5425 15.1444 13.2463 15.1444 10.4187C15.1444 7.59116 12.8523 5.29501 10.0207 5.29501C7.18906 5.29501 4.89697 7.5871 4.89697 10.4187ZM13.3473 10.4187C13.3473 12.2565 11.8584 13.7453 10.0207 13.7453C8.18298 13.7453 6.69413 12.2565 6.69413 10.4187C6.69413 8.58102 8.18298 7.09217 10.0207 7.09217C11.8584 7.09217 13.3473 8.58102 13.3473 10.4187Z" fill="#FDCA40"/>
<path d="M15.3513 6.28893C16.0122 6.28893 16.548 5.75312 16.548 5.09217C16.548 4.43122 16.0122 3.89542 15.3513 3.89542C14.6903 3.89542 14.1545 4.43122 14.1545 5.09217C14.1545 5.75312 14.6903 6.28893 15.3513 6.28893Z" fill="#FDCA40"/>
</svg>
