<svg width="111" height="89" viewBox="0 0 111 89" fill="none" xmlns="http://www.w3.org/2000/svg">
<path d="M24.5376 51.5875C23.9332 51.6943 23.5284 52.2712 23.6504 52.8727C25.7415 63.1841 31.4628 72.419 39.7936 78.8853C48.4174 85.5789 59.2216 88.8277 70.1069 88.0004C80.9923 87.1731 91.1814 82.3288 98.6945 74.4087C106.208 66.4886 110.508 56.0583 110.761 45.1445C111.013 34.2307 107.199 23.6128 100.061 15.3537C92.9218 7.09468 82.9676 1.78438 72.1321 0.454605C61.2967 -0.875168 50.3538 1.87055 41.4297 8.15828C32.8088 14.2324 26.6666 23.1928 24.1009 33.3965C23.9513 33.9917 24.329 34.5868 24.9278 34.7214C25.5266 34.856 26.1197 34.4791 26.2702 33.8841C28.7144 24.2184 34.5398 15.7317 42.7099 9.9752C51.1832 4.0051 61.5733 1.39807 71.8614 2.66068C82.1495 3.92328 91.6009 8.96534 98.3791 16.8072C105.157 24.649 108.778 34.7306 108.539 45.0931C108.299 55.4556 104.216 65.359 97.082 72.879C89.9484 80.3991 80.274 84.9987 69.9385 85.7842C59.603 86.5697 49.3446 83.485 41.1564 77.1295C33.2613 71.0014 27.8345 62.2544 25.8399 52.486C25.7171 51.8846 25.142 51.4807 24.5376 51.5875Z" fill="white"/>
<path d="M0.772461 44.127L44.7725 44.127" stroke="white"/>
</svg>
