<svg width="60" height="59" viewBox="0 0 60 59" fill="none" xmlns="http://www.w3.org/2000/svg">
<g clip-path="url(#clip0)">
<path d="M59.1611 28.1013C58.661 26.9413 57.9465 25.9002 57.0351 25.0053C56.1248 24.1093 55.0657 23.407 53.8858 22.9153C52.6642 22.4068 51.3678 22.1484 50.0312 22.1484H50.0288C48.835 22.1484 47.6653 22.3568 46.5533 22.7692C45.673 23.0945 44.8507 23.5413 44.0989 24.0961L9.05983 4.2061C8.46003 3.86558 7.76125 3.77507 7.09231 3.95144C6.42338 4.12771 5.86426 4.54934 5.51798 5.13886L4.22137 7.34614C3.87509 7.93577 3.78301 8.62271 3.9622 9.28019C4.14139 9.9379 4.57041 10.4874 5.17009 10.828L48.0572 35.1724C48.4772 35.4117 49.0041 35.2601 49.2371 34.8622C49.4757 34.4562 49.3352 33.9366 48.9226 33.7022L48.9215 33.701L43.57 30.6638C45.6131 30.1258 48.4041 29.3906 49.4723 29.1086L51.0822 30.0227C51.7471 30.3999 52.162 31.1057 52.1631 31.8646C52.1609 32.5807 51.7981 33.214 51.2562 33.591C50.8611 33.8698 50.7796 34.3977 51.0534 34.7759C51.3253 35.1541 51.864 35.2512 52.2564 34.9776C52.2575 34.9776 52.2575 34.9765 52.2588 34.9765C53.2951 34.2517 53.8916 33.0809 53.8916 31.8645C53.8916 30.5078 53.1624 29.2427 51.9465 28.551L45.76 25.0391C47.0399 24.2663 48.5183 23.8485 50.0313 23.8476C52.2115 23.8476 54.265 24.6859 55.8138 26.2061C57.3602 27.7285 58.2129 29.7473 58.2129 31.8906V52.5644H41.8495V33.4368C41.8495 32.9678 41.4612 32.5872 40.9853 32.5872C40.5081 32.5872 40.121 32.9678 40.121 33.4368V53.414C40.121 53.6383 40.2132 53.8569 40.3745 54.0144C40.5347 54.173 40.757 54.2636 40.9853 54.2636H59.0771C59.3041 54.2636 59.5276 54.173 59.6878 54.0144C59.8491 53.8569 59.9413 53.6372 59.9413 53.414V31.8906C59.9413 30.5765 59.6786 29.3021 59.1611 28.1013ZM6.03458 9.35643C5.83465 9.24292 5.69164 9.05975 5.63183 8.84055C5.57214 8.62124 5.6028 8.39241 5.71826 8.19598L7.01476 5.98869C7.13023 5.79215 7.31656 5.65146 7.53954 5.59278C7.76275 5.53387 7.99541 5.56434 8.19534 5.67774L13.6737 8.78765L7.77081 10.3421L6.03458 9.35643ZM9.88767 11.5437L15.7907 9.98922L20.4101 12.6113L14.507 14.1659L9.88767 11.5437ZM16.624 15.3676L22.5272 13.8131L27.1467 16.4355L21.2437 17.9899L16.624 15.3676ZM23.3604 19.1915L29.2635 17.6371L33.883 20.2592L27.9799 21.8136L23.3604 19.1915ZM30.0968 23.0154L35.9998 21.4609L40.6193 24.0832L34.7162 25.6377L30.0968 23.0154ZM47.3557 27.9071L41.4526 29.4617L36.833 26.8395L42.7363 25.2849L43.7261 25.8468C43.7307 25.8495 43.7353 25.852 43.74 25.8546L47.3557 27.9071Z" fill="#43C59E"/>
<path d="M8.37356 31.0411H5.2627C2.87988 31.0411 0.941406 32.9468 0.941406 35.2892V53.4142C0.941406 53.8835 1.32836 54.2638 1.80566 54.2638H11.8306C12.3079 54.2638 12.6949 53.8835 12.6949 53.4142V35.2892C12.6949 32.9468 10.7563 31.0411 8.37356 31.0411ZM10.9663 52.5646H2.66992V35.2892C2.66992 33.8838 3.83298 32.7404 5.2627 32.7404H8.37356C9.80328 32.7404 10.9663 33.8838 10.9663 35.2892V52.5646Z" fill="#43C59E"/>
<path d="M8.37356 34.55H5.2627C4.78539 34.55 4.39844 34.9303 4.39844 35.3997V38.4577C4.39844 38.927 4.78539 39.3073 5.2627 39.3073C5.74 39.3073 6.12695 38.927 6.12695 38.4577V36.2493H7.5093V38.4577C7.5093 38.927 7.89626 39.3073 8.37356 39.3073C8.85086 39.3073 9.23782 38.927 9.23782 38.4577V35.3997C9.23782 34.9303 8.85086 34.55 8.37356 34.55Z" fill="#43C59E"/>
<path d="M50.0312 36.8359C47.9661 36.8359 46.2861 38.4875 46.2861 40.5176C46.2861 42.5477 47.9661 44.1992 50.0312 44.1992C52.0964 44.1992 53.7764 42.5477 53.7764 40.5176C53.7764 38.4875 52.0964 36.8359 50.0312 36.8359ZM50.0312 42.5C48.9194 42.5 48.0146 41.6107 48.0146 40.5176C48.0146 39.4245 48.9194 38.5352 50.0312 38.5352C51.1431 38.5352 52.0479 39.4245 52.0479 40.5176C52.0479 41.6106 51.1431 42.5 50.0312 42.5Z" fill="#43C59E"/>
</g>
<defs>
<clipPath id="clip0">
<rect width="59" height="58" fill="white" transform="translate(0.941406 0.0635986)"/>
</clipPath>
</defs>
</svg>
