<svg width="82" height="83" viewBox="0 0 82 83" fill="none" xmlns="http://www.w3.org/2000/svg">
<g clip-path="url(#clip0)">
<path d="M79.1036 39.3037C74.5639 36.0799 68.145 35.4037 63.5595 35.4037H62.5547L46.5749 27.8544C44.5844 26.9135 42.3708 26.4167 40.1745 26.4167H26.0684C24.6977 26.4167 23.3641 26.6939 22.104 27.2401L7.45972 33.5938C6.65573 33.9429 5.80477 34.1199 4.9297 34.1199H3.95515C1.90283 34.1193 0.232422 35.8103 0.232422 37.8886V46.0428C0.232422 47.8427 1.49929 49.3986 3.24447 49.7421L7.9399 50.6667C8.52018 54.289 11.6299 57.0636 15.3687 57.0636C18.1656 57.0636 20.6091 55.5102 21.9069 53.2117H62.0943C63.3921 55.5102 65.8356 57.0636 68.6325 57.0636C71.4289 57.0636 73.873 55.5102 75.1708 53.2117H77.5099C79.5622 53.2117 81.2326 51.5213 81.2326 49.443V43.4465C81.2326 41.7993 80.4366 40.2503 79.1036 39.3037ZM45.5713 30.0315L56.9434 35.4037H40.0101L34.4346 28.8191H40.1738C42.0266 28.8191 43.8929 29.2383 45.5713 30.0315ZM31.3095 28.8191L36.8849 35.4037H34.8734C34.1084 35.4037 33.3835 35.0665 32.8854 34.4778L28.0941 28.8191H31.3095ZM22.7727 50.8094C22.8524 50.3658 22.8963 49.9097 22.8963 49.443C22.8963 48.9313 22.8456 48.4189 22.7455 47.9203C22.6151 47.2703 21.9891 46.8505 21.347 46.9819C20.7043 47.1139 20.2897 47.7482 20.42 48.3982C20.4886 48.7392 20.5232 49.0908 20.5232 49.443C20.5232 52.3202 18.2108 54.6606 15.3687 54.6606C12.5266 54.6606 10.2147 52.3202 10.2147 49.443C10.2147 46.5658 12.5266 44.2248 15.3687 44.2248C16.0886 44.2248 16.7838 44.3718 17.4364 44.6615C18.0359 44.9273 18.736 44.6508 18.9993 44.0434C19.2626 43.4359 18.9894 42.7277 18.3894 42.4612C17.4346 42.0376 16.418 41.8224 15.3687 41.8224C11.6299 41.8224 8.52018 44.597 7.9399 48.2193L3.69745 47.3841C3.06463 47.2596 2.60486 46.6953 2.60486 46.0428V41.6573H3.95515C4.61021 41.6573 5.14167 41.1192 5.14167 40.4561C5.14167 39.793 4.61021 39.2549 3.95515 39.2549H2.60547V37.8886C2.60547 37.1347 3.2111 36.5223 3.95515 36.5223H4.9297C6.12797 36.5223 7.29349 36.2795 8.39473 35.8022L23.0384 29.4485C23.6805 29.1701 24.3473 28.9855 25.0302 28.8917L31.0839 36.0412C32.0332 37.1629 33.4144 37.806 34.8734 37.806H63.5595C66.7304 37.806 72.388 38.182 76.5798 40.5387H76.2418C75.5861 40.5387 75.0552 41.0767 75.0552 41.7399C75.0552 42.4036 75.5861 42.941 76.2418 42.941H78.8107C78.8422 43.1062 78.8595 43.2751 78.8595 43.4465V45.6743H75.1708C73.873 43.3758 71.4295 41.8231 68.6325 41.8231C65.8356 41.8231 63.3921 43.3758 62.0943 45.6743H59.7558C59.1002 45.6743 58.5693 46.2117 58.5693 46.8755C58.5693 47.5387 59.1002 48.0767 59.7558 48.0767H61.2285C61.1488 48.5202 61.1049 48.9763 61.1049 49.443C61.1049 49.9097 61.1488 50.3658 61.2285 50.8094H22.7727ZM68.6325 54.6606C65.7904 54.6606 63.478 52.3202 63.478 49.443C63.478 46.5658 65.7904 44.2248 68.6325 44.2248C71.4746 44.2248 73.7871 46.5658 73.7871 49.443C73.7871 52.3202 71.4746 54.6606 68.6325 54.6606ZM77.5099 50.8094H76.0366C76.1163 50.3658 76.1602 49.9097 76.1602 49.443C76.1602 48.9763 76.1163 48.5202 76.0366 48.0767H78.8595V49.443C78.8595 50.1963 78.2539 50.8094 77.5099 50.8094Z" fill="#43C59E"/>
<path d="M54.6828 45.6743H38.7896L36.102 42.0464C35.4024 41.1023 34.2888 40.5386 33.1233 40.5386H28.0509C27.601 40.5386 27.1906 40.7958 26.9898 41.203C26.7883 41.6097 26.8316 42.097 27.1017 42.4605L30.1452 46.5689C30.8442 47.513 31.9578 48.0766 33.1233 48.0766H54.6828C55.3379 48.0766 55.8693 47.5386 55.8693 46.8755C55.8693 46.2117 55.3379 45.6743 54.6828 45.6743ZM33.1233 45.6743C32.7006 45.6743 32.297 45.4697 32.0437 45.1275L30.4239 42.941H33.1233C33.546 42.941 33.9495 43.1456 34.2035 43.4878L35.8232 45.6743H33.1233Z" fill="#43C59E"/>
<path d="M15.3687 46.9581C14.0153 46.9581 12.9141 48.0729 12.9141 49.443C12.9141 50.8131 14.0153 51.9279 15.3687 51.9279C16.7227 51.9279 17.8233 50.8131 17.8233 49.443C17.8233 48.0729 16.7227 46.9581 15.3687 46.9581Z" fill="#43C59E"/>
<path d="M68.6326 46.9581C67.2792 46.9581 66.178 48.0729 66.178 49.443C66.178 50.8131 67.2792 51.9279 68.6326 51.9279C69.986 51.9279 71.0872 50.8131 71.0872 49.443C71.0872 48.0729 69.986 46.9581 68.6326 46.9581Z" fill="#43C59E"/>
</g>
<defs>
<clipPath id="clip0">
<rect width="81" height="82" fill="white" transform="translate(0.390625 0.631592)"/>
</clipPath>
</defs>
</svg>
