<svg width="27" height="19" viewBox="0 0 27 19" fill="none" xmlns="http://www.w3.org/2000/svg">
<path d="M13.9234 0.00299168C15.6674 0.0126233 21.8959 0.0800443 23.6398 0.551994C24.7535 0.848476 25.6316 1.71674 25.9314 2.81796C26.4246 4.59987 26.4643 8.09296 26.4669 8.86811L26.4669 9.06258C26.4652 9.49263 26.4364 13.3098 25.9314 15.2066C25.6316 16.3079 24.7535 17.1761 23.6398 17.4726C21.6882 17.9804 14.1209 18.0012 13.5064 18.002H13.4271C12.8142 18.0011 5.26567 17.9796 3.29355 17.4514C2.17986 17.155 1.30176 16.2867 1.00192 15.1855C0.527687 13.4223 0.473479 9.93137 0.467285 9.15647V8.8477C0.473479 8.07635 0.527687 4.59987 1.00192 2.81796C1.30176 1.71674 2.20128 0.827298 3.29355 0.530817C5.03751 0.0770189 11.266 0.0121909 13.0099 0.00292969L13.9234 0.00299168ZM10.8752 5.14746V12.856L17.643 9.00171L10.8752 5.14746Z" fill="#43C59E"/>
</svg>
