<svg width="32" height="23" viewBox="0 0 32 23" fill="none" xmlns="http://www.w3.org/2000/svg">
<path d="M16.6222 0.684646C18.7602 0.696454 26.396 0.77911 28.534 1.3577C29.8994 1.72117 30.9759 2.78563 31.3435 4.13568C31.9481 6.32023 31.9967 10.6026 32 11.5529L31.9999 11.7913C31.9979 12.3185 31.9625 16.9982 31.3435 19.3237C30.9759 20.6737 29.8994 21.7382 28.534 22.1017C26.1415 22.7242 16.8642 22.7496 16.1109 22.7507H16.0137C15.2622 22.7496 6.00811 22.7232 3.59037 22.0757C2.22503 21.7122 1.14852 20.6478 0.780931 19.2977C0.199538 17.1362 0.133082 12.8564 0.125488 11.9064V11.5279C0.133082 10.5822 0.199538 6.32023 0.780931 4.13568C1.14852 2.78563 2.25129 1.69521 3.59037 1.33174C5.7284 0.775401 13.3642 0.695924 15.5023 0.68457L16.6222 0.684646ZM12.8852 6.99154V16.4419L21.1822 11.7167L12.8852 6.99154Z" fill="white"/>
</svg>
