<svg width="26" height="19" viewBox="0 0 26 19" fill="none" xmlns="http://www.w3.org/2000/svg">
<path d="M13.4566 0.439088C15.2006 0.448719 21.4291 0.516141 23.173 0.988091C24.2867 1.28457 25.1648 2.15284 25.4646 3.25406C25.9579 5.03597 25.9975 8.52906 26.0001 9.3042L26.0001 9.49867C25.9984 9.92872 25.9696 13.7459 25.4646 15.6427C25.1648 16.744 24.2867 17.6122 23.173 17.9087C21.2214 18.4165 13.6541 18.4373 13.0396 18.4381H12.9603C12.3474 18.4372 4.79888 18.4157 2.82675 17.8875C1.71306 17.591 0.834966 16.7228 0.535126 15.6216C0.0608897 13.8584 0.00668228 10.3675 0.000488281 9.59256V9.28379C0.00668228 8.51244 0.0608897 5.03597 0.535126 3.25406C0.834966 2.15284 1.73448 1.26339 2.82675 0.966913C4.57072 0.513115 10.7992 0.448287 12.5431 0.439026L13.4566 0.439088ZM10.4084 5.58355V13.2921L17.1762 9.43781L10.4084 5.58355Z" fill="#FDCA40"/>
</svg>
