<svg width="81" height="81" viewBox="0 0 81 81" fill="none" xmlns="http://www.w3.org/2000/svg">
<circle cx="40.918" cy="40.4287" r="40" fill="#43C59E"/>
<g clip-path="url(#clip0)">
<path d="M14.9129 31.586L29.5375 38.4506C29.6846 38.5196 29.8491 38.5424 30.0095 38.5164L35.3478 37.6445C38.3986 37.1464 41.5166 38.1617 43.6888 40.3606L48.1564 44.8832C48.4302 45.1603 48.5674 45.5271 48.5427 45.9158C48.518 46.3046 48.3357 46.651 48.0291 46.8914C47.5634 47.2564 46.9009 47.2725 46.4183 46.9305L42.0623 43.8444C41.4441 43.4064 40.6206 43.4562 40.0597 43.9652L36.8764 46.8537C36.5472 47.1526 36.5224 47.6618 36.8212 47.9911C37.12 48.3204 37.6291 48.3452 37.9586 48.0463L41.1313 45.1584L45.4872 48.2445C45.9964 48.6052 46.5966 48.7845 47.1961 48.7845C47.8443 48.7845 48.4917 48.5749 49.0226 48.1587C49.6858 47.6389 50.0965 46.8584 50.1499 46.0176C50.2033 45.1767 49.8942 44.3508 49.3021 43.7514L45.76 40.1659C47.6331 39.7011 49.616 39.7773 51.4561 40.4025L53.3437 41.044C53.5496 41.1139 53.7636 41.1484 53.977 41.1484C54.312 41.1484 54.6453 41.0633 54.943 40.896C54.9468 40.8939 54.9506 40.8917 54.9542 40.8896L68.8715 32.7733C69.2557 32.5492 69.3855 32.0562 69.1615 31.6721C68.9375 31.2879 68.4443 31.1583 68.0603 31.3821L54.1502 39.4942C54.0619 39.5424 53.9569 39.5513 53.8618 39.5191L51.9742 38.8778C49.5399 38.0506 46.8896 38.0509 44.4594 38.8684C41.9447 36.5504 38.4813 35.5014 35.0882 36.0552L29.9961 36.887L15.5973 30.1283C15.1946 29.9393 14.7152 30.1125 14.5262 30.515C14.3373 30.9176 14.5103 31.397 14.9129 31.586Z" fill="white"/>
<path d="M69.3055 46.6782C69.1104 46.2786 68.628 46.113 68.2285 46.3081L61.1441 49.7686C61.023 49.8278 60.9186 49.9164 60.8407 50.0263L60.2707 50.8299C59.5853 51.7963 58.698 52.5976 57.6747 53.1813C57.5952 53.0524 57.5047 52.9281 57.4021 52.8101L55.995 51.1908C54.97 50.0113 53.1766 49.8856 51.997 50.9106L51.8812 51.0114C51.2817 51.5323 50.9551 52.2518 50.9128 52.9883C50.9005 52.9872 50.8881 52.9856 50.8758 52.9848C50.1209 52.9318 49.3902 53.1761 48.8188 53.6725L48.7028 53.7733C48.1029 54.2946 47.7762 55.0146 47.7343 55.7516C46.9987 55.6904 46.2402 55.9132 45.6405 56.4345L45.5243 56.5354C44.9245 57.0566 44.5979 57.7767 44.5558 58.5135C43.8202 58.4523 43.0616 58.6753 42.4618 59.1967L42.3459 59.2974C41.7745 59.7939 41.4308 60.4831 41.3777 61.2382C41.3248 61.9933 41.5692 62.7238 42.0656 63.2952L42.7456 64.0777L42.4742 64.3178C42.4693 64.3223 42.4642 64.3267 42.4594 64.3312C41.9351 64.819 41.0665 64.8066 40.5551 64.3067C40.1168 63.8247 40.103 63.0907 40.5252 62.5933C40.801 62.2683 40.7758 61.7845 40.4675 61.49C40.1593 61.1956 39.675 61.1923 39.3628 61.4827L39.2764 61.5631C38.7519 62.051 37.8832 62.0384 37.372 61.5386C36.9275 61.05 36.9181 60.3104 37.352 59.8121C37.6333 59.489 37.6125 59.0023 37.3047 58.7045C36.997 58.4068 36.5098 58.4021 36.1962 58.6938L36.1721 58.7161C35.6477 59.2039 34.779 59.1915 34.2678 58.6916C33.8284 58.2086 33.8153 57.4737 34.2394 56.9761C34.4882 56.6842 34.4964 56.2572 34.2593 55.9559C34.022 55.6545 33.6051 55.5624 33.263 55.7355C32.7328 56.0039 32.0892 55.8786 31.6976 55.4311C31.242 54.9104 31.2998 54.0876 31.8253 53.5926L32.6912 52.8258L35.3923 50.3747C35.7215 50.0758 35.7463 49.5666 35.4474 49.2373C35.1485 48.9079 34.6393 48.8832 34.3101 49.1821L31.6163 51.6266L30.7494 52.3944C30.7446 52.3988 30.7397 52.4032 30.7349 52.4076C30.2909 52.8206 30.0007 53.3435 29.8682 53.8971L29.8622 53.8937C28.3859 53.057 27.0982 51.9621 26.0348 50.6397L25.5757 50.0687C25.5016 49.9766 25.4082 49.9019 25.302 49.8499L15.6089 45.1081C15.2094 44.9129 14.7272 45.0782 14.5318 45.4775C14.3364 45.877 14.5018 46.3593 14.9012 46.5547L24.4332 51.2176L24.7798 51.6488C25.9713 53.1304 27.414 54.3572 29.0681 55.2946L30.0713 55.8632C30.179 56.0863 30.3165 56.2981 30.4859 56.4915C30.9754 57.051 31.6412 57.3853 32.3404 57.4667C32.2407 58.292 32.4951 59.1503 33.0986 59.7991C33.1052 59.8062 33.112 59.8131 33.1188 59.82C33.7413 60.4425 34.5895 60.731 35.4209 60.68C35.425 61.3863 35.6864 62.0909 36.2027 62.646C36.2094 62.6531 36.2161 62.66 36.2229 62.6669C36.8661 63.3101 37.7505 63.5965 38.6081 63.5207C38.6289 64.2039 38.8891 64.8801 39.3857 65.4141C39.3923 65.4211 39.3991 65.4281 39.4058 65.435C39.9818 66.011 40.7514 66.3006 41.5215 66.3006C42.2511 66.3006 42.9814 66.0405 43.548 65.5174L43.8353 65.2633C44.2825 65.6246 44.8279 65.8412 45.4134 65.8823C45.4812 65.887 45.5486 65.8893 45.6159 65.8893C46.2982 65.8893 46.9503 65.6464 47.4703 65.1945L47.5864 65.0936C48.1864 64.5722 48.513 63.8521 48.5549 63.1151C48.6337 63.1217 48.7128 63.1259 48.792 63.1259C49.4513 63.1259 50.1135 62.8977 50.649 62.4323L50.7649 62.3316C51.3648 61.8103 51.6914 61.0902 51.7334 60.3532C51.8122 60.3597 51.8912 60.3639 51.9704 60.3639C52.6297 60.3639 53.2919 60.1358 53.8274 59.6703L53.9433 59.5696C54.5147 59.0731 54.8584 58.3839 54.9115 57.6288C54.9123 57.6162 54.9124 57.6038 54.9132 57.5912C54.9916 57.5976 55.0703 57.6018 55.1489 57.6018C55.8083 57.6018 56.4703 57.3737 57.0058 56.9084L57.1218 56.8076C57.7336 56.2759 58.061 55.5376 58.0924 54.7853C59.4797 54.0737 60.679 53.0377 61.5844 51.7613L62.0355 51.1253L68.9354 47.7548C69.335 47.5599 69.5008 47.0777 69.3055 46.6782ZM46.5305 63.8783L46.4144 63.9792C46.1678 64.1935 45.8532 64.299 45.5264 64.2761C45.2004 64.2533 44.9028 64.1048 44.6885 63.8582L43.2814 62.2389C43.067 61.9922 42.9615 61.6768 42.9844 61.3509C43.0073 61.0249 43.1557 60.7273 43.4025 60.5129L43.5183 60.4122C43.7496 60.2112 44.0354 60.1128 44.32 60.1128C44.6621 60.1128 45.0026 60.2552 45.2441 60.5332L46.6513 62.1526C47.0938 62.6616 47.0395 63.4358 46.5305 63.8783ZM49.7086 61.1164L49.5928 61.2171C49.0837 61.6595 48.3094 61.6053 47.8669 61.0961L46.4597 59.4767C46.0172 58.9675 46.0715 58.1933 46.5805 57.7509L46.6966 57.65C47.2058 57.2076 47.98 57.2618 48.4226 57.771L49.8297 59.3903C50.2722 59.8996 50.218 60.6739 49.7086 61.1164ZM53.3051 57.5165C53.2823 57.8424 53.1338 58.14 52.8871 58.3544L52.7712 58.4551C52.262 58.8976 51.4878 58.8433 51.0453 58.3341L49.6381 56.7147C49.1956 56.2055 49.2499 55.4312 49.759 54.9888L49.875 54.8879C50.0996 54.6929 50.381 54.588 50.6758 54.588C50.7047 54.588 50.7339 54.5889 50.7631 54.591C51.0891 54.6139 51.3867 54.7623 51.601 55.0089L53.0082 56.6283C53.2226 56.8751 53.328 57.1904 53.3051 57.5165ZM56.0657 55.5922L55.9496 55.693C55.4405 56.1355 54.6663 56.0813 54.2237 55.5721L52.8165 53.9527C52.6021 53.7061 52.4967 53.3907 52.5196 53.0647C52.5424 52.7388 52.6908 52.4412 52.9376 52.2268L53.0535 52.1261C53.5627 51.6836 54.337 51.7379 54.7794 52.2471L56.1866 53.8664C56.6291 54.3755 56.5748 55.1498 56.0657 55.5922Z" fill="white"/>
<path d="M39.0058 33.8334L41.2345 34.6508C41.4392 34.7258 41.6542 34.7634 41.8694 34.7634C42.0844 34.7634 42.2994 34.7258 42.5042 34.6508L44.7328 33.8334C46.7499 33.0937 48.5516 31.8387 49.9431 30.2039C51.3191 28.5873 52.2662 26.6347 52.682 24.5569C52.7693 24.1208 52.4866 23.6966 52.0505 23.6093C51.614 23.5218 51.1901 23.8048 51.1029 24.2408C50.3646 27.9295 47.7113 31.0258 44.1784 32.3214L41.9497 33.1387C41.8978 33.1577 41.8408 33.1577 41.7889 33.1387L39.5602 32.3214C35.2914 30.7559 32.4234 26.6493 32.4234 22.1025V15.1041C32.4234 14.9139 32.5589 14.7496 32.7455 14.7133L41.919 12.9267L50.9939 14.7116C51.18 14.7482 51.3152 14.9125 51.3152 15.1023V20.9669C51.3152 21.4115 51.6757 21.7721 52.1204 21.7721C52.5651 21.7721 52.9256 21.4115 52.9256 20.9669V15.1021C52.9256 14.1449 52.2439 13.3161 51.3047 13.1314L42.0751 11.3162C41.973 11.2961 41.868 11.296 41.7657 11.3158L32.4376 13.1325C31.4961 13.3159 30.813 14.145 30.813 15.1041V22.1027C30.813 27.3221 34.1054 32.0364 39.0058 33.8334Z" fill="white"/>
<path d="M42.072 14.5981C41.9699 14.5779 41.8649 14.5779 41.7627 14.5977L34.6851 15.976C34.3068 16.0497 34.0338 16.381 34.0338 16.7664V22.1026C34.0338 25.9766 36.4776 29.4756 40.1147 30.8095L41.592 31.3512C41.6815 31.3841 41.7754 31.4004 41.8692 31.4004C41.9632 31.4004 42.057 31.384 42.1464 31.3512L43.6238 30.8095C47.261 29.4757 49.7048 25.9766 49.7048 22.1026V16.7615C49.7048 16.3767 49.4325 16.0457 49.0549 15.9714L42.072 14.5981ZM48.0943 22.1026C48.0943 25.3039 46.075 28.1953 43.0694 29.2975L41.8693 29.7377L40.6693 29.2976C37.6636 28.1953 35.6442 25.304 35.6442 22.1027V17.43L41.9159 16.2087L48.0943 17.4238V22.1026Z" fill="white"/>
<path d="M39.803 23.5948C39.479 23.2901 38.9695 23.3059 38.6647 23.6298C38.3602 23.9538 38.3758 24.4633 38.6997 24.768L39.9994 25.9902C40.1492 26.1311 40.3467 26.2088 40.551 26.2088C40.568 26.2088 40.5852 26.2083 40.6024 26.2072C40.8247 26.193 41.0312 26.0873 41.1728 25.9153L45.3825 20.8002C45.6651 20.4568 45.6158 19.9493 45.2725 19.6668C44.9292 19.3842 44.4217 19.4335 44.1391 19.7768L40.4759 24.2277L39.803 23.5948Z" fill="white"/>
</g>
<defs>
<clipPath id="clip0">
<rect width="55" height="55" fill="white" transform="translate(14.418 11.301)"/>
</clipPath>
</defs>
</svg>
