<svg width="81" height="81" viewBox="0 0 81 81" fill="none" xmlns="http://www.w3.org/2000/svg">
<circle cx="40.8809" cy="40.5636" r="40" fill="#43C59E"/>
<g clip-path="url(#clip0)">
<path d="M51.3355 30.5378C51.1434 30.5379 50.9592 30.6129 50.8233 30.7462L38.2035 43.1279L30.9409 36.0019C30.8025 35.8734 30.6192 35.8019 30.4287 35.8019C30.2382 35.8019 30.0549 35.8734 29.9165 36.0019L26.9887 38.8749C26.8529 39.0082 26.7766 39.189 26.7766 39.3774C26.7766 39.5659 26.8529 39.7467 26.9887 39.88L37.6926 50.3811C37.7598 50.4472 37.8397 50.4996 37.9275 50.5353C38.0154 50.5711 38.1096 50.5895 38.2048 50.5895C38.2999 50.5895 38.3941 50.5711 38.482 50.5353C38.5699 50.4996 38.6498 50.4472 38.717 50.3811L54.7756 34.6243C54.9114 34.4909 54.9877 34.3101 54.9877 34.1216C54.9877 33.933 54.9114 33.7522 54.7756 33.6188L51.8477 30.7462C51.7119 30.6129 51.5277 30.5379 51.3355 30.5378ZM38.2035 48.8731L28.5257 39.3774L30.4304 37.5087L37.6926 44.6355C37.7598 44.7016 37.8397 44.754 37.9275 44.7898C38.0154 44.8255 38.1096 44.8439 38.2048 44.8439C38.2999 44.8439 38.3941 44.8255 38.482 44.7898C38.5699 44.754 38.6498 44.7016 38.717 44.6355L51.3355 32.2542L53.2402 34.123L38.2035 48.8731Z" fill="white"/>
<path d="M40.8808 21.1985C36.9771 21.1985 33.1611 22.3342 29.9153 24.4621C26.6694 26.59 24.1396 29.6144 22.6457 33.1529C21.1519 36.6914 20.761 40.5851 21.5226 44.3416C22.2841 48.098 24.164 51.5486 26.9243 54.2568C29.6847 56.9651 33.2015 58.8094 37.0302 59.5566C40.859 60.3038 44.8275 59.9204 48.4341 58.4547C52.0406 56.989 55.1232 54.5069 57.292 51.3223C59.4608 48.1377 60.6184 44.3937 60.6184 40.5636C60.6125 35.4294 58.5311 30.5072 54.8308 26.8768C51.1306 23.2464 46.1137 21.2043 40.8808 21.1985ZM40.8808 58.5069C37.2638 58.5069 33.7279 57.4545 30.7204 55.4829C27.7129 53.5112 25.3689 50.7089 23.9847 47.4302C22.6005 44.1515 22.2383 40.5437 22.9439 37.0631C23.6496 33.5824 25.3914 30.3852 27.9491 27.8758C30.5067 25.3664 33.7654 23.6575 37.313 22.9651C40.8606 22.2728 44.5377 22.6281 47.8795 23.9862C51.2212 25.3443 54.0775 27.6441 56.087 30.5949C58.0966 33.5456 59.1692 37.0148 59.1692 40.5636C59.1637 45.3208 57.2351 49.8816 53.8066 53.2455C50.378 56.6093 45.7295 58.5015 40.8808 58.5069Z" fill="white"/>
<path d="M66.5644 42.8435C67.0964 42.1982 67.3867 41.3933 67.3867 40.5632C67.3867 39.7332 67.0964 38.9283 66.5644 38.283L65.3768 36.8286C65.1492 36.5495 64.9934 36.2207 64.9226 35.8701C64.8517 35.5194 64.8679 35.1572 64.9698 34.814L65.4998 33.0301C65.7326 32.2325 65.683 31.381 65.3592 30.6145C65.0354 29.8481 64.4565 29.2118 63.7169 28.8096L62.0577 27.9159C61.7381 27.7441 61.4653 27.4994 61.2625 27.2025C61.0596 26.9055 60.9326 26.5649 60.8921 26.2096L60.6851 24.3591C60.5965 23.5333 60.2216 22.7623 59.6231 22.175C59.0246 21.5878 58.2388 21.22 57.397 21.1331L55.511 20.93C55.1488 20.8905 54.8017 20.7659 54.499 20.567C54.1963 20.368 53.9469 20.1004 53.7719 19.7868L52.861 18.1585C52.4573 17.4269 51.8095 16.8538 51.0261 16.5353C50.2428 16.2168 49.3717 16.1723 48.5589 16.4092L46.7411 16.9288C46.3912 17.0286 46.0218 17.0444 45.6644 16.9748C45.3069 16.9052 44.9716 16.7524 44.687 16.5291L43.2046 15.364C42.5468 14.8422 41.7264 14.5575 40.8805 14.5575C40.0346 14.5575 39.2142 14.8422 38.5564 15.364L37.074 16.5291C36.7893 16.7519 36.4542 16.9045 36.0969 16.9739C35.7396 17.0434 35.3705 17.0278 35.0207 16.9284L33.2025 16.4084C32.3895 16.1799 31.5216 16.2285 30.7404 16.5462C29.9591 16.8639 29.3107 17.432 28.9008 18.1577L27.9899 19.7856C27.8149 20.0992 27.5655 20.3668 27.2628 20.5658C26.9601 20.7649 26.613 20.8895 26.2508 20.9292L24.3648 21.1323C23.523 21.2192 22.7372 21.587 22.1387 22.1742C21.5402 22.7614 21.1653 23.5325 21.0767 24.3583L20.8697 26.2088C20.8294 26.5641 20.7025 26.9047 20.4997 27.2017C20.2969 27.4987 20.0241 27.7434 19.7045 27.915L18.045 28.8088C17.2994 29.205 16.7154 29.8407 16.3908 30.6091C16.0662 31.3776 16.0207 32.2323 16.262 33.0297L16.7924 34.8128C16.8941 35.1561 16.9102 35.5185 16.8393 35.8692C16.7684 36.22 16.6126 36.5489 16.385 36.8282L15.1974 38.2826C14.6654 38.9279 14.3751 39.7328 14.3751 40.5628C14.3751 41.3929 14.6654 42.1978 15.1974 42.8431L16.385 44.2975C16.6126 44.5766 16.7684 44.9054 16.8393 45.256C16.9101 45.6067 16.8939 45.9689 16.792 46.3121L16.262 48.0959C16.0291 48.8935 16.0785 49.7451 16.4021 50.5116C16.7258 51.2781 17.3046 51.9145 18.0441 52.3169L19.7033 53.2106C20.0229 53.3823 20.2957 53.627 20.4985 53.924C20.7014 54.221 20.8284 54.5615 20.8689 54.9169L21.0759 56.7673C21.1645 57.5932 21.5394 58.3642 22.1379 58.9514C22.7364 59.5386 23.5222 59.9064 24.364 59.9934L26.25 60.1965C26.6122 60.236 26.9593 60.3605 27.262 60.5595C27.5647 60.7585 27.8141 61.0261 27.9891 61.3397L28.9 62.9679C29.3037 63.6995 29.9515 64.2727 30.7348 64.5912C31.5182 64.9097 32.3893 64.9542 33.2021 64.7172L35.0194 64.1968C35.3695 64.0974 35.7387 64.0817 36.0961 64.1513C36.4536 64.2209 36.7888 64.3736 37.0736 64.5966L38.5559 65.7617C39.2137 66.2837 40.0341 66.5685 40.8801 66.5685C41.7261 66.5685 42.5465 66.2837 43.2042 65.7617L44.6866 64.5966C44.9711 64.3733 45.3062 64.2205 45.6635 64.151C46.0209 64.0815 46.3901 64.0974 46.7399 64.1972L48.558 64.7172C49.3708 64.954 50.2418 64.9093 51.025 64.5908C51.8082 64.2723 52.456 63.6993 52.8597 62.9679L53.7707 61.3401C53.9457 61.0265 54.1951 60.7589 54.4978 60.5598C54.8005 60.3608 55.1476 60.2362 55.5097 60.1965L57.3958 59.9934C58.2376 59.9064 59.0234 59.5386 59.6219 58.9514C60.2204 58.3642 60.5953 57.5932 60.6839 56.7673L60.8909 54.9169C60.9312 54.5616 61.0581 54.221 61.2609 53.924C61.4637 53.627 61.7365 53.3823 62.0561 53.2106L63.7156 52.3169C64.4612 51.9206 65.0452 51.285 65.3698 50.5165C65.6944 49.748 65.7399 48.8934 65.4986 48.0959L64.9682 46.3129C64.8665 45.9695 64.8504 45.6072 64.9213 45.2564C64.9922 44.9057 65.148 44.5768 65.3756 44.2975L66.5644 42.8435ZM64.2456 43.4094C63.8727 43.867 63.6173 44.4058 63.5012 44.9805C63.385 45.5552 63.4114 46.1489 63.5782 46.7114L64.109 48.4945C64.2561 48.981 64.2283 49.5025 64.0302 49.9713C63.8321 50.4402 63.4757 50.828 63.0208 51.0697L61.3609 51.9634C60.8368 52.2452 60.3897 52.6468 60.0574 53.1341C59.7252 53.6214 59.5175 54.1801 59.452 54.7629L59.245 56.6134C59.1906 57.1172 58.9618 57.5876 58.5966 57.9459C58.2314 58.3042 57.752 58.5287 57.2384 58.582L55.352 58.7852C54.7581 58.8496 54.1887 59.0535 53.6921 59.3796C53.1955 59.7057 52.7863 60.1443 52.4991 60.6584L51.5882 62.2866C51.3416 62.7327 50.9464 63.0821 50.4687 63.2765C49.991 63.4708 49.4597 63.4983 48.9638 63.3543L47.1461 62.8339C46.5728 62.67 45.9678 62.6439 45.3821 62.7578C44.7964 62.8717 44.2472 63.1223 43.781 63.4883L42.2987 64.6535C41.8972 64.9722 41.3965 65.1461 40.8801 65.1461C40.3637 65.1461 39.8629 64.9722 39.4615 64.6535L37.9792 63.4883C37.5128 63.1223 36.9636 62.8718 36.3779 62.7578C35.7921 62.6438 35.187 62.6698 34.6137 62.8335L32.7968 63.3539C32.3008 63.4978 31.7695 63.4702 31.2918 63.2759C30.814 63.0816 30.4187 62.7322 30.172 62.2862L29.2611 60.6576C28.9739 60.1434 28.5646 59.7048 28.0679 59.3788C27.5712 59.0528 27.0018 58.849 26.4078 58.7848L24.5217 58.5816C24.0081 58.5283 23.5288 58.3037 23.1636 57.9455C22.7984 57.5872 22.5695 57.1168 22.5152 56.613L22.3081 54.7621C22.2424 54.1794 22.0346 53.6208 21.7023 53.1336C21.3699 52.6463 20.9229 52.2448 20.3989 51.963L18.7393 51.0693C18.2881 50.8239 17.9349 50.4357 17.7374 49.9681C17.5398 49.5005 17.5096 48.9811 17.6516 48.4945L18.182 46.711C18.3489 46.1486 18.3754 45.5549 18.2593 44.9803C18.1432 44.4057 17.8879 43.8669 17.515 43.4094L16.3266 41.955C16.0019 41.5611 15.8247 41.0699 15.8247 40.5632C15.8247 40.0566 16.0019 39.5653 16.3266 39.1714L17.5141 37.717C17.8871 37.2595 18.1424 36.7207 18.2586 36.146C18.3747 35.5713 18.3483 34.9776 18.1816 34.4151L17.6516 32.632C17.5045 32.1454 17.5323 31.624 17.7304 31.1551C17.9285 30.6863 18.2849 30.2985 18.7397 30.0568L20.3997 29.163C20.9238 28.8813 21.3709 28.4797 21.7031 27.9924C22.0354 27.5051 22.2431 26.9464 22.3086 26.3636L22.5156 24.5131C22.5703 24.009 22.7997 23.5386 23.1655 23.1805C23.5312 22.8224 24.0111 22.5983 24.525 22.5456L26.4115 22.3425C27.0054 22.278 27.5748 22.0741 28.0713 21.7481C28.5679 21.422 28.9772 20.9834 29.2644 20.4693L30.1753 18.841C30.4253 18.3989 30.8204 18.0527 31.2963 17.8587C31.7722 17.6648 32.301 17.6344 32.7968 17.7726L34.6145 18.293C35.1878 18.4568 35.7928 18.4829 36.3785 18.369C36.9642 18.2551 37.5133 18.0045 37.9796 17.6385L39.4619 16.4726C39.8634 16.154 40.3641 15.9801 40.8805 15.9801C41.3969 15.9801 41.8976 16.154 42.2991 16.4726L43.7814 17.6377C44.2479 18.0034 44.7971 18.2538 45.3828 18.3678C45.9685 18.4818 46.5735 18.456 47.1469 18.2926L48.9642 17.7726C49.4602 17.6288 49.9914 17.6563 50.4692 17.8507C50.9469 18.045 51.3422 18.3943 51.589 18.8402L52.4999 20.4689C52.7871 20.983 53.1964 21.4217 53.6931 21.7477C54.1898 22.0737 54.7592 22.2775 55.3532 22.3417L57.2393 22.5448C57.7528 22.5982 58.2322 22.8227 58.5974 23.181C58.9626 23.5393 59.1915 24.0096 59.2458 24.5135L59.4529 26.3644C59.5186 26.9471 59.7264 27.5057 60.0587 27.9929C60.391 28.4801 60.8381 28.8816 61.3621 29.1635L63.0217 30.0572C63.4729 30.3026 63.8261 30.6907 64.0237 31.1583C64.2213 31.6259 64.2517 32.1453 64.1098 32.632L63.5794 34.4155C63.4125 34.9779 63.386 35.5715 63.5021 36.1462C63.6182 36.7208 63.8735 37.2596 64.2465 37.717L65.434 39.1714C65.7587 39.5653 65.9358 40.0566 65.9358 40.5632C65.9358 41.0699 65.7587 41.5611 65.434 41.955L64.2456 43.4094Z" fill="white"/>
</g>
<defs>
<clipPath id="clip0">
<rect width="53" height="52" fill="white" transform="translate(14.3809 14.5636)"/>
</clipPath>
</defs>
</svg>
