<svg width="81" height="81" viewBox="0 0 81 81" fill="none" xmlns="http://www.w3.org/2000/svg">
<circle cx="40.8809" cy="40.5636" r="40" fill="#43C59E"/>
<g clip-path="url(#clip0)">
<path d="M56.5641 63.5145C56.3653 63.5145 56.165 63.4469 56.0013 63.3087C55.6318 62.9978 55.5842 62.4456 55.8952 62.0766C56.0193 61.9294 56.0994 61.7576 56.135 61.5664L62.7069 26.0837C62.8185 25.4819 62.4195 24.9016 61.8177 24.79L56.4709 23.7996C55.9958 23.7115 55.6819 23.2554 55.77 22.7803C55.8581 22.3041 56.3102 21.9857 56.7899 22.0788L62.1366 23.0687C63.6872 23.3565 64.7151 24.8521 64.4282 26.4012L57.8563 61.8843C57.7667 62.3705 57.5514 62.8266 57.2345 63.2026C57.0612 63.4084 56.8129 63.5145 56.5641 63.5145Z" fill="white"/>
<path d="M54.6194 65.0636H23.5894C22.0122 65.0636 20.7295 63.7813 20.7295 62.2037V18.9235C20.7295 17.3463 22.0122 16.0636 23.5894 16.0636H54.6194C56.1961 16.0636 57.4793 17.3463 57.4793 18.9235V62.2037C57.4793 63.7813 56.1961 65.0636 54.6194 65.0636ZM23.5894 17.8135C22.977 17.8135 22.4794 18.3116 22.4794 18.9235V62.2037C22.4794 62.8155 22.977 63.3137 23.5894 63.3137H54.6194C55.2318 63.3137 55.7294 62.8155 55.7294 62.2037V18.9235C55.7294 18.3116 55.2318 17.8135 54.6194 17.8135H23.5894Z" fill="white"/>
<path d="M50.4793 49.3137H27.7294C27.2458 49.3137 26.8542 48.9221 26.8542 48.4385V45.5896C26.8542 43.1433 29.5599 41.4385 31.9887 41.4385H34.8947C35.3778 41.4385 35.7698 41.83 35.7698 42.3137C35.7698 42.7973 35.3778 43.1883 34.8947 43.1883H31.9887C30.2804 43.1883 28.6041 44.378 28.6041 45.5896V47.5638H49.6041V45.2146C49.6041 44.1917 48.1446 43.1883 46.6576 43.1883H43.1704C42.6872 43.1883 42.2952 42.7973 42.2952 42.3137C42.2952 41.83 42.6872 41.4385 43.1704 41.4385H46.6576C48.8791 41.4385 51.354 42.9896 51.354 45.2146V48.4385C51.354 48.9221 50.9624 49.3137 50.4793 49.3137Z" fill="white"/>
<path d="M46.9801 35.7512C46.956 35.7512 46.932 35.7502 46.908 35.7482C46.4258 35.7082 46.0673 35.2861 46.1074 34.8045L46.545 29.4637C46.542 26.4491 44.2103 23.9387 41.3449 23.9387H36.8638C33.998 23.9387 31.6668 26.4491 31.6668 29.5353L32.1014 34.8045C32.1409 35.2861 31.7824 35.7082 31.3003 35.7482C30.8186 35.7808 30.3971 35.4298 30.3575 34.9477L29.9199 29.6074C29.9169 25.4843 33.0331 22.1884 36.8638 22.1884H41.3449C45.1756 22.1884 48.2918 25.4843 48.2918 29.5353L47.8512 34.9477C47.8137 35.4048 47.4312 35.7512 46.9801 35.7512Z" fill="white"/>
<path d="M39.1044 44.0636C36.5799 44.0636 34.2888 43.1293 32.9751 41.5642C31.3829 39.6656 30.354 37.026 30.354 34.8396V31.3128C30.354 29.8253 30.3881 28.9646 31.08 28.5831C31.6973 28.2376 32.2816 28.6086 32.7963 28.9315C33.4802 29.3631 34.5146 30.014 36.2029 30.014C37.5658 30.014 39.2055 29.5974 40.7907 29.1949C43.3521 28.5435 45.5626 27.9833 46.8994 29.0212C47.5328 29.5143 47.8542 30.2849 47.8542 31.3133V34.8396C47.8542 37.026 46.8253 39.6656 45.2332 41.5642C43.9199 43.1293 41.6283 44.0636 39.1044 44.0636ZM32.1139 30.5688C32.1084 30.7645 32.1044 31.0079 32.1044 31.3128V34.8396C32.1044 36.6115 32.9931 38.8625 34.3159 40.4396C35.2862 41.5957 37.1207 42.3137 39.1044 42.3137C41.0876 42.3137 42.922 41.5957 43.8924 40.4396C45.2152 38.8625 46.1044 36.6115 46.1044 34.8396V31.3128C46.1044 30.8531 46.0102 30.5462 45.825 30.403C45.1641 29.8883 43.0697 30.4226 41.2217 30.8907C39.5319 31.3198 37.7856 31.7639 36.2029 31.7639C34.2338 31.7639 32.9075 31.0554 32.1139 30.5688Z" fill="white"/>
<path d="M47.8542 56.3137H29.4793C28.9962 56.3137 28.6041 55.9222 28.6041 55.4385C28.6041 54.9549 28.9962 54.5638 29.4793 54.5638H47.8542C48.3374 54.5638 48.7294 54.9549 48.7294 55.4385C48.7294 55.9222 48.3374 56.3137 47.8542 56.3137Z" fill="white"/>
<path d="M39.1044 59.8135H29.4793C28.9962 59.8135 28.6041 59.4225 28.6041 58.9388C28.6041 58.4551 28.9962 58.0636 29.4793 58.0636H39.1044C39.5875 58.0636 39.9791 58.4551 39.9791 58.9388C39.9791 59.4225 39.5875 59.8135 39.1044 59.8135Z" fill="white"/>
</g>
<defs>
<clipPath id="clip0">
<rect width="49" height="49" fill="white" transform="translate(18 16.0636)"/>
</clipPath>
</defs>
</svg>
