<svg width="81" height="81" viewBox="0 0 81 81" fill="none" xmlns="http://www.w3.org/2000/svg">
<circle cx="40.8809" cy="40.5636" r="40" fill="#43C59E"/>
<g clip-path="url(#clip0)">
<path d="M39.9399 12C39.9394 12 39.9388 12 39.9383 12C39.6875 12 39.447 12.1015 39.2698 12.2818C39.0916 12.4626 38.9919 12.708 38.9919 12.9638V18.4031C27.6227 18.8801 18.4858 28.2871 18.1792 39.9001C18.177 39.9261 18.1646 39.9487 18.1646 39.9757C18.1646 39.9961 18.1748 40.0137 18.1759 40.0341C18.1732 40.1896 18.1646 40.344 18.1646 40.5C18.1646 52.3883 27.4271 62.1118 38.9919 62.5964V68.0363C38.9919 68.2921 39.0916 68.5375 39.2698 68.7183C39.447 68.8986 39.6875 69.0001 39.9383 69.0001H39.9399C55.3557 68.9753 67.8972 56.1905 67.8972 40.5C67.8972 24.809 55.3557 12.0243 39.9399 12V12ZM20.08 40.9389H23.8448C24.3676 40.9389 24.7917 40.5078 24.7917 39.9757C24.7917 39.4431 24.3676 39.0119 23.8448 39.0119H20.132C20.4392 34.7608 22.028 30.8692 24.5285 27.7517L27.2538 30.4374C27.438 30.6183 27.6752 30.7087 27.9125 30.7087C28.16 30.7087 28.4071 30.6106 28.5923 30.4154C28.9563 30.0333 28.9466 29.4229 28.5712 29.0529L25.7955 26.3176C29.1947 22.8163 33.842 20.5921 38.9919 20.3539V23.5943C38.9919 24.1264 39.4155 24.5581 39.9383 24.5581C40.461 24.5581 40.8852 24.1264 40.8852 23.5943V20.3583C45.5568 20.5943 49.8005 22.4734 53.0778 25.4514L50.6477 28.0059C50.2842 28.388 50.294 28.9984 50.6699 29.3683C50.853 29.5492 51.0908 29.6396 51.3281 29.6396C51.5751 29.6396 51.8227 29.5415 52.0079 29.3457L54.4288 26.8006C57.399 30.062 59.3215 34.3109 59.6611 39.0113H56.0323C55.5095 39.0113 55.0854 39.4431 55.0854 39.9751C55.0854 40.5072 55.5095 40.9389 56.0323 40.9389H59.7131C59.6021 46.1395 57.5544 50.8532 54.2712 54.376L51.6975 51.8396C51.3222 51.4691 50.7219 51.4785 50.3595 51.8617C49.9955 52.2438 50.0053 52.8542 50.3812 53.2236L52.9039 55.7097C49.651 58.5956 45.4739 60.4097 40.8852 60.6412V57.3198C40.8852 56.7877 40.461 56.3565 39.9383 56.3565C39.4155 56.3565 38.9919 56.7877 38.9919 57.3198V60.6456C34.382 60.4328 30.1828 58.6232 26.9136 55.7323L28.9623 53.5781C29.3258 53.196 29.3166 52.5856 28.9406 52.2162C28.5652 51.8451 27.965 51.8551 27.6021 52.2383L25.5447 54.4019C22.2474 50.8769 20.1911 46.1522 20.08 40.9389ZM40.8852 67.0543V62.5948C52.411 62.0665 61.6286 52.3596 61.6286 40.5006C61.6286 28.6411 52.411 18.9341 40.8852 18.4059V13.9458C54.8205 14.4779 66.0039 26.1935 66.0039 40.5C66.0039 54.8066 54.8205 66.5222 40.8852 67.0543Z" fill="white"/>
<path d="M39.9388 42.8298C39.9388 44.9548 41.6376 46.6844 43.7253 46.6844C45.8136 46.6844 47.5124 44.9548 47.5124 42.8298V38.9756C47.5124 36.8501 45.8136 35.121 43.7253 35.121C41.6376 35.121 39.9388 36.8501 39.9388 38.9756V42.8298ZM41.8321 38.9756C41.8321 37.9126 42.6815 37.048 43.7253 37.048C44.7697 37.048 45.6191 37.9126 45.6191 38.9756V42.8298C45.6191 43.8928 44.7697 44.7568 43.7253 44.7568C42.6815 44.7568 41.8321 43.8928 41.8321 42.8298V38.9756Z" fill="white"/>
<path d="M35.5275 45.0322C34.5719 45.0322 33.7947 44.2916 33.7947 43.3804C33.7947 42.9243 33.4072 42.5542 32.9289 42.5542C32.4506 42.5542 32.0625 42.9243 32.0625 43.3804C32.0625 45.2018 33.6168 46.6844 35.5275 46.6844C37.4376 46.6844 38.9919 45.2018 38.9919 43.3804C38.9919 42.395 38.5369 41.5084 37.8168 40.9025C38.5369 40.2966 38.9919 39.4104 38.9919 38.4245C38.9919 36.6031 37.4376 35.121 35.5275 35.121C33.6168 35.121 32.0625 36.6031 32.0625 38.4245C32.0625 38.8806 32.4506 39.2507 32.9289 39.2507C33.4072 39.2507 33.7947 38.8806 33.7947 38.4245C33.7947 37.5138 34.5719 36.7728 35.5275 36.7728C36.4826 36.7728 37.2597 37.5138 37.2597 38.4245C37.2597 39.3357 36.4826 40.0768 35.5275 40.0768C35.0487 40.0768 34.6611 40.4464 34.6611 40.9025C34.6611 41.3585 35.0487 41.7286 35.5275 41.7286C36.4826 41.7286 37.2597 42.4692 37.2597 43.3804C37.2597 44.2916 36.4826 45.0322 35.5275 45.0322Z" fill="white"/>
<path d="M39.9388 33.2302C40.4616 33.2302 40.8852 32.799 40.8852 32.2669V27.4485C40.8852 26.9164 40.4616 26.4852 39.9388 26.4852C39.4161 26.4852 38.9919 26.9164 38.9919 27.4485V32.2669C38.9919 32.799 39.4161 33.2302 39.9388 33.2302Z" fill="white"/>
<path d="M39.9388 47.6846C39.4161 47.6846 38.9919 48.1157 38.9919 48.6478V53.4657C38.9919 53.9978 39.4161 54.4296 39.9388 54.4296C40.4616 54.4296 40.8852 53.9978 40.8852 53.4657V48.6478C40.8852 48.1157 40.4616 47.6846 39.9388 47.6846Z" fill="white"/>
</g>
<defs>
<clipPath id="clip0">
<rect width="56" height="57" fill="white" transform="translate(15 12)"/>
</clipPath>
</defs>
</svg>
