<svg width="81" height="81" viewBox="0 0 81 81" fill="none" xmlns="http://www.w3.org/2000/svg">
<circle cx="40.0261" cy="40.4287" r="40" fill="#43C59E"/>
<g clip-path="url(#clip0)">
<path d="M29.7354 46.1569L24.9074 41.329C23.9614 40.385 22.7074 39.865 21.3714 39.865H18.0274C17.4754 39.865 17.0273 40.313 17.0273 40.865C17.0273 41.417 17.4754 41.865 18.0274 41.865H21.3713C22.1593 41.865 22.9333 42.1849 23.4913 42.7429L26.6133 45.8649H18.0274C17.4754 45.8649 17.0273 46.3129 17.0273 46.8649C17.0273 47.4169 17.4754 47.865 18.0274 47.865H29.0273C29.4313 47.865 29.7953 47.6209 29.9513 47.247C30.1073 46.873 30.0214 46.443 29.7354 46.1569Z" fill="white"/>
<path d="M29.0275 50.865C28.4755 50.865 28.0275 51.3131 28.0275 51.8651V54.8651C28.0275 55.4171 27.5775 55.8651 27.0275 55.8651H21.0275C20.4774 55.8651 20.0274 55.4171 20.0274 54.8651V50.865C20.0274 50.313 19.5794 49.865 19.0274 49.865C18.4754 49.865 18.0275 50.313 18.0275 50.865V54.8651C18.0275 56.5191 19.3734 57.8651 21.0275 57.8651H27.0275C28.6815 57.8651 30.0275 56.5191 30.0275 54.8651V51.8651C30.0275 51.3131 29.5795 50.865 29.0275 50.865Z" fill="white"/>
<path d="M59.4895 33.9791C56.7335 32.5371 50.5475 31.8651 40.0275 31.8651C29.5074 31.8651 23.3215 32.5371 20.5654 33.9791C17.4255 35.6191 16.0275 38.3591 16.0275 42.8651C16.0275 47.1971 17.0194 50.9651 17.0614 51.1231C17.1774 51.5611 17.5734 51.8651 18.0274 51.8651H26.7915L30.5794 53.7591C30.7194 53.8292 30.8734 53.8652 31.0275 53.8652H49.0275C49.1815 53.8652 49.3354 53.8292 49.4734 53.7591L53.2635 51.8651H62.0275C62.4815 51.8651 62.8775 51.5611 62.9935 51.1231C63.0355 50.9651 64.0275 47.1971 64.0275 42.8651C64.0275 38.3591 62.6295 35.6191 59.4895 33.9791ZM61.2375 49.865H53.0295C52.8735 49.865 52.7194 49.901 52.5814 49.9711L48.7914 51.8651H31.2634L27.4755 49.9711C27.3355 49.901 27.1815 49.865 27.0274 49.865H18.8194C18.5415 48.5911 18.0274 45.839 18.0274 42.865C18.0274 39.099 19.0314 37.037 21.4894 35.751C23.8854 34.4989 30.1215 33.865 40.0275 33.865C49.9335 33.865 56.1694 34.499 58.5655 35.751C61.0235 37.0369 62.0275 39.099 62.0275 42.865C62.0275 45.839 61.5135 48.5911 61.2375 49.865Z" fill="white"/>
<path d="M62.0275 45.865H53.4415L56.5615 42.743C57.1215 42.185 57.8935 41.8651 58.6835 41.8651H62.0275C62.5795 41.8651 63.0275 41.417 63.0275 40.865C63.0275 40.313 62.5795 39.865 62.0275 39.865H58.6835C57.3475 39.865 56.0935 40.385 55.1476 41.329L50.3195 46.157C50.0356 46.4431 49.9495 46.873 50.1035 47.2471C50.2576 47.6211 50.6236 47.8651 51.0275 47.8651H62.0275C62.5795 47.8651 63.0275 47.417 63.0275 46.865C63.0274 46.3129 62.5795 45.865 62.0275 45.865Z" fill="white"/>
<path d="M51.9334 40.441C51.7674 40.089 51.4155 39.865 51.0274 39.865H29.0275C28.6395 39.865 28.2875 40.089 28.1215 40.441C27.9575 40.791 28.0095 41.207 28.2595 41.505L33.2595 47.505C33.4495 47.733 33.7315 47.865 34.0275 47.865H46.0275C46.3234 47.865 46.6054 47.733 46.7955 47.505L51.7954 41.505C52.0455 41.2069 52.0975 40.791 51.9334 40.441ZM45.5575 45.865H34.4955L31.1614 41.865H48.8914L45.5575 45.865Z" fill="white"/>
<path d="M59.9455 34.467C58.8074 31.851 54.9995 23.229 53.6755 22.103C52.0255 20.701 47.2994 19.865 41.0275 19.865H39.0275C32.7555 19.865 28.0295 20.701 26.3795 22.101C25.0555 23.2271 21.2455 31.8491 20.1095 34.4651C19.8915 34.9731 20.1235 35.5611 20.6295 35.781C21.1335 36.0011 21.7255 35.771 21.9455 35.2631C24.2035 30.0651 26.9655 24.2891 27.6755 23.6271C28.4455 22.9731 31.7035 21.8651 39.0275 21.8651H41.0275C48.3515 21.8651 51.6095 22.9731 52.3754 23.6231C53.0894 24.2891 55.8514 30.063 58.1095 35.2631C58.2734 35.6411 58.6435 35.865 59.0275 35.865C59.1595 35.865 59.2975 35.8391 59.4254 35.783C59.9314 35.5631 60.1634 34.973 59.9455 34.467Z" fill="white"/>
<path d="M61.0275 49.865C60.4755 49.865 60.0275 50.313 60.0275 50.865V54.8651C60.0275 55.4171 59.5775 55.8651 59.0274 55.8651H53.0274C52.4774 55.8651 52.0274 55.4171 52.0274 54.8651V51.8651C52.0274 51.3131 51.5794 50.865 51.0274 50.865C50.4754 50.865 50.0273 51.3131 50.0273 51.8651V54.8651C50.0273 56.5191 51.3733 57.8651 53.0273 57.8651H59.0273C60.6814 57.8651 62.0273 56.5191 62.0273 54.8651V50.865C62.0275 50.313 61.5795 49.865 61.0275 49.865Z" fill="white"/>
</g>
<defs>
<clipPath id="clip0">
<rect width="48" height="48" fill="white" transform="translate(16.0275 14.865)"/>
</clipPath>
</defs>
</svg>
