<svg width="81" height="81" viewBox="0 0 81 81" fill="none" xmlns="http://www.w3.org/2000/svg">
<circle cx="40.7295" cy="40.4287" r="40" fill="#43C59E"/>
<g clip-path="url(#clip0)">
<path d="M40.5937 45.8629C39.3057 45.8629 38.2578 46.9108 38.2578 48.1988C38.2578 49.4868 39.3057 50.5346 40.5937 50.5346C41.8816 50.5346 42.9295 49.4868 42.9295 48.1988C42.9295 46.9108 41.8817 45.8629 40.5937 45.8629ZM40.5937 48.7378C40.2964 48.7378 40.0546 48.4961 40.0546 48.1988C40.0546 47.9015 40.2964 47.6597 40.5937 47.6597C40.891 47.6597 41.1327 47.9015 41.1327 48.1988C41.1327 48.4961 40.891 48.7378 40.5937 48.7378Z" fill="white"/>
<path d="M47.8049 42.8854C47.6378 42.7183 47.406 42.6221 47.1697 42.6221C46.9334 42.6221 46.7016 42.7182 46.5345 42.8854C46.3665 43.0524 46.2712 43.2842 46.2712 43.5205C46.2712 43.7569 46.3665 43.9887 46.5345 44.1557C46.7016 44.3229 46.9334 44.4189 47.1697 44.4189C47.406 44.4189 47.6378 44.3229 47.8049 44.1557C47.972 43.9887 48.0681 43.7569 48.0681 43.5205C48.0681 43.2842 47.972 43.0524 47.8049 42.8854Z" fill="white"/>
<path d="M59.3157 28.8013H58.3471L45.6742 16.1284C45.3234 15.7776 44.7544 15.7776 44.4036 16.1284L41.157 19.3751L28.1725 15.8959C27.6932 15.7673 27.2004 16.0518 27.0721 16.5312L23.7845 28.8013H21.5824C19.5018 28.8013 17.8091 30.494 17.8091 32.5747C17.8091 32.6245 17.811 32.674 17.8129 32.7234C17.8108 32.7481 17.8091 32.7729 17.8091 32.7982V57.373C17.8091 59.8498 19.8243 61.865 22.3012 61.865H54.4642C54.4782 61.865 54.4918 61.8641 54.5058 61.8639H59.3156C61.7925 61.8639 63.8076 59.8488 63.8076 57.3718V33.2933C63.8077 30.8163 61.7926 28.8013 59.3157 28.8013ZM58.5131 30.5981H59.3157C60.8019 30.5981 62.0109 31.8072 62.0109 33.2933V40.4937C62.0109 41.6678 61.0556 42.6231 59.8816 42.6231H58.9563V39.0431C58.9563 36.5975 56.9916 34.6035 54.5577 34.5534L58.5131 30.5981ZM42.0609 21.0124C42.061 21.0123 42.0611 21.0121 42.0611 21.012L45.039 18.0342L56.7875 29.7827L52.0483 34.5219H50.4047L52.5544 32.3721C52.9053 32.0212 52.9053 31.4523 52.5544 31.1015C51.8272 30.3742 51.8272 29.191 52.5544 28.4637C52.9053 28.1128 52.9053 27.5439 52.5544 27.193L47.6285 22.2672C47.2776 21.9164 46.7088 21.9164 46.3578 22.2672C45.6305 22.9946 44.4472 22.9946 43.72 22.2672C43.3692 21.9164 42.8002 21.9164 42.4494 22.2672L30.1948 34.522H28.5512L42.0609 21.0124ZM39.4169 31.1466C37.3659 31.1466 35.6476 32.5948 35.2284 34.522H32.7357L43.1635 24.0942C44.3145 24.7803 45.7633 24.7803 46.9143 24.0942L50.7274 27.9073C50.0414 29.0582 50.0414 30.5072 50.7274 31.6581L47.8634 34.522H43.6053C43.1862 32.5947 41.4679 31.1466 39.4169 31.1466ZM41.7336 34.522H37.1005C37.4651 33.5987 38.3658 32.9435 39.417 32.9435C40.4683 32.9435 41.3689 33.5987 41.7336 34.522ZM27.6016 32.9304L29.9808 24.0509C30.6332 24.0614 31.2821 23.8948 31.8633 23.5591C32.4446 23.2235 32.9124 22.7464 33.2305 22.1747L37.2739 23.2581L31.4061 29.1259L27.6016 32.9304ZM28.5752 17.864L39.6899 20.8421L38.7411 21.7911L32.9345 20.2352C32.7042 20.1734 32.459 20.2058 32.2527 20.3249C32.0463 20.444 31.8958 20.6403 31.8341 20.8704C31.7051 21.3516 31.3965 21.7539 30.9651 22.003C30.5336 22.2521 30.0309 22.3183 29.5496 22.1893C29.0705 22.0609 28.5777 22.3453 28.4493 22.8246L25.3071 34.5511H24.1039L28.5752 17.864ZM21.5824 30.5981H23.3028L22.2436 34.5511H21.5823C20.4924 34.5511 19.6059 33.6645 19.6059 32.5747C19.606 31.4848 20.4927 30.5981 21.5824 30.5981ZM62.0109 57.3718C62.0109 58.858 60.8018 60.067 59.3157 60.067H58.0563C58.6211 59.3159 58.9563 58.3829 58.9563 57.3729V53.7633H59.4954C60.4337 53.7633 61.3023 53.4612 62.0109 52.9503V57.3718ZM62.0109 49.451C62.0109 50.8381 60.8824 51.9665 59.4954 51.9665H40.6288C38.5482 51.9665 36.8554 50.2739 36.8554 48.1932C36.8554 46.1125 38.5481 44.4198 40.6288 44.4198H43.3516C43.8478 44.4198 44.25 44.0175 44.25 43.5214C44.25 43.0253 43.8478 42.623 43.3516 42.623H40.6288C37.5574 42.623 35.0586 45.1217 35.0586 48.1931C35.0586 51.2645 37.5574 53.7632 40.6288 53.7632H57.1596V57.3728C57.1596 58.8451 55.9728 60.0457 54.5058 60.068H23.9183V49.9508C23.9183 49.4547 23.516 49.0524 23.0198 49.0524C22.5236 49.0524 22.1214 49.4547 22.1214 49.9508V60.0615C20.7188 59.9687 19.6059 58.7986 19.6059 57.373V35.7871C20.1811 36.1424 20.8581 36.3479 21.5823 36.3479H54.4642C55.9504 36.3479 57.1594 37.557 57.1594 39.0431V42.6231H50.6634C50.1672 42.6231 49.765 43.0254 49.765 43.5215C49.765 44.0176 50.1672 44.4199 50.6634 44.4199H59.8816C60.6662 44.4199 61.3971 44.1877 62.0109 43.7897V49.451Z" fill="white"/>
<path d="M23.6546 45.8116C23.4875 45.6446 23.2557 45.5483 23.0194 45.5483C22.7831 45.5483 22.5513 45.6445 22.3842 45.8116C22.2171 45.9787 22.121 46.2105 22.121 46.4468C22.121 46.6831 22.2171 46.9149 22.3842 47.082C22.5513 47.2491 22.7831 47.3452 23.0194 47.3452C23.2557 47.3452 23.4875 47.2491 23.6546 47.082C23.8217 46.9149 23.9178 46.6831 23.9178 46.4468C23.9178 46.2105 23.8216 45.9787 23.6546 45.8116Z" fill="white"/>
</g>
<defs>
<clipPath id="clip0">
<rect width="46" height="46" fill="white" transform="translate(17.808 15.865)"/>
</clipPath>
</defs>
</svg>
