<svg width="35" height="35" viewBox="0 0 35 35" fill="none" xmlns="http://www.w3.org/2000/svg">
<circle cx="17.7341" cy="17.439" r="17" fill="#FDCA40"/>
<path d="M26.1651 23.9725L21.833 19.6403C22.6721 18.6038 23.1773 17.2867 23.1773 15.8522C23.1773 12.5274 20.472 9.82208 17.1473 9.82208C13.8225 9.82208 11.1172 12.5273 11.1172 15.8521C11.1172 19.1769 13.8225 21.8822 17.1473 21.8822C18.5818 21.8822 19.8989 21.377 20.9354 20.5378L25.2676 24.87C25.3913 24.9937 25.5538 25.056 25.7163 25.056C25.8789 25.056 26.0413 24.9937 26.1651 24.87C26.4133 24.6218 26.4133 24.2206 26.1651 23.9725ZM17.1473 20.6127C14.522 20.6127 12.3867 18.4775 12.3867 15.8521C12.3867 13.2268 14.522 11.0916 17.1473 11.0916C19.7726 11.0916 21.9079 13.2268 21.9079 15.8521C21.9079 18.4775 19.7726 20.6127 17.1473 20.6127Z" fill="white"/>
</svg>
