<svg width="165" height="36" viewBox="0 0 165 36" fill="none" xmlns="http://www.w3.org/2000/svg">
<path d="M102.007 34.9305L104.043 29.0614H112.706L114.73 34.9305H118.282L110.302 12.7535H106.436L98.4551 34.9305H102.007ZM105.017 26.2459L108.287 16.7817H108.461L111.731 26.2459H105.017Z" fill="#43C59E"/>
<path d="M119.09 34.9305H127.039C130.677 34.9305 132.81 33.0896 132.81 30.4474C132.81 27.9785 130.915 26.4625 128.695 26.2026C130.742 25.8128 132.096 24.6866 132.096 22.7375C132.096 20.0087 129.735 18.2977 125.988 18.2977H119.09V34.9305ZM122.133 32.2233V27.5995H127.039C128.641 27.5995 129.605 28.5416 129.605 30.0901C129.605 31.4112 128.641 32.2233 127.039 32.2233H122.133ZM122.133 25.228V21.0374H125.988C127.829 21.0374 128.944 21.8062 128.944 23.084C128.944 24.4159 127.84 25.228 126.021 25.228H122.133Z" fill="#43C59E"/>
<path d="M133.296 21.0915H138.743V34.9305H141.905V21.0915H147.33V18.2977H133.296V21.0915Z" fill="#43C59E"/>
<path fill-rule="evenodd" clip-rule="evenodd" d="M146.593 23.9017L146.762 24.1991L148.516 23.6681C148.84 23.3418 149.158 23.0092 149.404 22.5847C149.517 22.2233 149.494 21.9 149.573 21.6712C152.423 18.0095 157.862 17.5889 161.13 21.7236C161.314 22.0052 161.105 22.2155 161.239 22.5422C161.452 22.9768 161.758 23.3608 162.126 23.7106L164.028 24.2204L164.092 23.923C161.176 15.1689 149.664 15.0714 146.593 23.9017L146.593 23.9017Z" fill="#43C59E"/>
<path fill-rule="evenodd" clip-rule="evenodd" d="M159.319 25.1174L160.069 27.6726C163.221 27.9063 162.233 29.4783 161.049 31.2092L161.471 33.0998C163.007 31.5452 164.691 29.6408 164.367 25.1336L162.549 24.5388C162.548 24.9066 162.607 25.2869 162.338 25.6009C161.431 26.0915 160.158 25.453 159.319 25.1174L159.319 25.1174Z" fill="#43C59E"/>
<path fill-rule="evenodd" clip-rule="evenodd" d="M151.168 25.2052L150.447 27.7281C147.294 27.9619 148.42 29.4783 149.605 31.2092L149.182 33.0999C147.647 31.5452 145.962 29.6408 146.287 25.1336L148.104 24.5388C148.106 24.9067 148.046 25.2869 148.315 25.601C149.222 26.0915 150.328 25.5408 151.168 25.2052L151.168 25.2052Z" fill="#43C59E"/>
<path fill-rule="evenodd" clip-rule="evenodd" d="M150.133 31.6982L149.657 33.4614C153.575 36.3022 157.328 36.0269 160.964 33.5464L160.499 31.6982C159.525 32.5186 157.73 33.8389 156.779 33.2489C156.336 32.8167 156.415 32.1926 156.462 31.6982H153.979C153.923 32.2674 153.915 32.913 153.313 33.2914C152.393 33.5648 151.042 32.4379 150.133 31.6982L150.133 31.6982Z" fill="#43C59E"/>
<path fill-rule="evenodd" clip-rule="evenodd" d="M159.928 27.6828L159.167 25.0486C157.57 24.4356 156.385 24.0603 155.278 24.0494C153.972 24.0482 152.922 24.5278 151.369 25.1124L150.629 27.7253C151.465 27.8343 152.345 27.8594 152.933 28.4476C153.364 28.9698 153.802 30.2825 153.994 31.4943L156.47 31.4856C156.639 30.4554 156.908 28.8704 157.667 28.2139C158.361 27.7588 159.153 27.76 159.928 27.6828L159.928 27.6828Z" fill="#43C59E"/>
<path fill-rule="evenodd" clip-rule="evenodd" d="M155.236 24.6454C154.698 24.6454 154.182 24.8602 153.802 25.2427C153.421 25.6251 153.208 26.1438 153.208 26.6847C153.208 27.2256 153.421 27.7443 153.802 28.1267C154.182 28.5092 154.698 28.724 155.236 28.724C155.774 28.724 156.29 28.5092 156.671 28.1267C157.051 27.7443 157.265 27.2256 157.265 26.6847C157.265 26.1438 157.051 25.6251 156.671 25.2427C156.29 24.8602 155.774 24.6454 155.236 24.6454ZM155.227 24.8882C155.698 24.8882 156.15 25.0764 156.484 25.4115C156.817 25.7466 157.004 26.2011 157.004 26.675C157.004 27.1489 156.817 27.6034 156.484 27.9385C156.15 28.2736 155.698 28.4619 155.227 28.4619C154.755 28.4619 154.303 28.2736 153.97 27.9385C153.636 27.6034 153.449 27.1489 153.449 26.675C153.449 26.2011 153.636 25.7466 153.97 25.4115C154.303 25.0764 154.755 24.8882 155.227 24.8882Z" fill="white" fill-opacity="0.65922"/>
<path d="M0 0V35.1713H6.42289L21.7245 13.0347H21.9821V35.1713H29.4182V0H22.8923L7.7109 22.1195H7.40178V0H0Z" fill="#485696"/>
<path d="M63.7513 0H34.8311V35.1713H42.1814V6.04507H56.4011V35.1713H63.7513V0Z" fill="#485696"/>
<path d="M69.1385 35.1713H82.2934C90.6397 35.1713 95.8261 30.586 95.8261 23.9399C95.8261 17.2765 90.6397 13.0003 82.2934 13.0003H76.5746V6.13094H92.4773V0H69.1385V35.1713ZM76.5746 29.195V18.8737H82.2934C86.2776 18.8737 88.4587 21.0719 88.4587 23.8712C88.4587 26.7563 86.2776 29.195 82.2934 29.195H76.5746Z" fill="#485696"/>
</svg>
